#!OML:ASF E:\emotionWalksFemale\Project 1\Capture day 1\Session 1\Female1.ASF
:FULLY-SPECIFIED
:DEGREES
757
root 9.66119 15.5182 -13.4234 171.938 24.4972 173.954
lowerback -1.55227 -3.28519 9.70005
upperback -5.67709 -3.57244 3.98463
thorax -5.47313 -1.90723 -1.12054
lowerneck 0.10328 13.0037 8.13811
upperneck 13.7141 19.5183 -9.69613
head 5.88923 9.82307 -3.02243
rclavicle 1.74931e-014 -7.95139e-014
rhumerus -43.5493 -9.69156 -51.6476
rradius 40.7821
rwrist -4.08343
rhand -4.96748 -51.9946
rfingers 7.12502
rthumb 20.8247 -80.897
lclavicle 1.74931e-014 -7.95139e-014
lhumerus -44.6365 3.55213 86.7928
lradius 37.1541
lwrist -12.2975
lhand 1.44855 -28.1032
lfingers 7.12502
lthumb 26.9771 -0.00924414
rfemur 18.195 14.0321 17.1365
rtibia 35.9453
rfoot 5.72994 -6.59008
rtoes 0.398838
lfemur -8.66037 -6.60592 -28.5419
ltibia 19.7456
lfoot -11.1559 23.5156
ltoes 8.65282
758
root 9.63486 15.5253 -13.5814 171.833 24.223 173.525
lowerback -1.39919 -3.348 9.32252
upperback -5.86879 -3.61696 4.02434
thorax -5.73652 -1.92004 -0.853913
lowerneck 0.502324 12.8845 7.89394
upperneck 13.5453 19.3573 -9.6072
head 5.72179 9.76066 -3.01714
rclavicle -6.36111e-015 -1.59028e-014
rhumerus -43.9469 -9.50418 -51.2543
rradius 40.479
rwrist -4.19765
rhand -4.70129 -52.4043
rfingers 7.12502
rthumb 21.0804 -81.2784
lclavicle -6.36111e-015 -1.59028e-014
lhumerus -44.9961 3.59664 86.6766
lradius 38.1309
lwrist -11.5437
lhand 3.08057 -27.2549
lfingers 7.12502
lthumb 28.5375 0.587442
rfemur 16.3932 13.1581 15.9197
rtibia 39.2551
rfoot 7.68193 -5.98079
rtoes -1.04898
lfemur -7.77929 -6.38503 -29.4682
ltibia 18.831
lfoot -10.6959 23.2633
ltoes 8.00767
759
root 9.61429 15.5283 -13.7415 171.684 24.141 172.98
lowerback -1.23545 -3.28411 8.83045
upperback -5.94032 -3.52416 4.0087
thorax -5.85784 -1.85942 -0.595459
lowerneck 0.398291 12.8587 7.64478
upperneck 13.4882 19.2874 -9.48283
head 5.67859 9.71718 -2.9487
rclavicle 4.77083e-014 0
rhumerus -44.3337 -9.36648 -51.0219
rradius 40.3077
rwrist -4.4227
rhand -4.69122 -52.7815
rfingers 7.12502
rthumb 21.0901 -81.6545
lclavicle 4.77083e-014 0
lhumerus -44.9943 3.61106 86.4896
lradius 38.9984
lwrist -10.8223
lhand 5.31917 -26.6039
lfingers 7.12502
lthumb 30.6744 0.859125
rfemur 14.6174 12.4964 14.6579
rtibia 42.6761
rfoot 9.03135 -5.49991
rtoes -0.5866
lfemur -7.01793 -6.16992 -30.4342
ltibia 17.9831
lfoot -10.5247 23.1956
ltoes 9.03275
760
root 9.59441 15.5234 -13.8988 171.503 24.127 172.286
lowerback -1.22699 -3.27803 8.18642
upperback -5.93367 -3.56606 3.83953
thorax -5.81343 -1.86482 -0.419571
lowerneck 0.541338 12.991 7.86047
upperneck 13.1294 19.3815 -9.43313
head 5.56745 9.77175 -2.97659
rclavicle -3.4191e-014 5.08889e-014
rhumerus -44.7239 -9.34036 -51.0998
rradius 40.148
rwrist -3.92522
rhand -4.35764 -53.4172
rfingers 7.12502
rthumb 21.4105 -82.2542
lclavicle -3.4191e-014 5.08889e-014
lhumerus -45.2258 3.80652 85.796
lradius 40.147
lwrist -10.2157
lhand 7.58111 -26.0412
lfingers 7.12502
lthumb 32.8287 0.995045
rfemur 12.8448 11.8896 13.2325
rtibia 46.148
rfoot 9.77325 -5.37825
rtoes 0.833564
lfemur -6.27003 -5.86676 -31.5615
ltibia 17.1521
lfoot -10.5594 23.1931
ltoes 10.8335
761
root 9.57413 15.5143 -14.0541 171.308 24.0794 171.82
lowerback -1.1113 -3.31885 7.69763
upperback -5.88354 -3.64516 3.78975
thorax -5.7926 -1.88881 -0.196767
lowerneck 0.625491 12.9652 8.11807
upperneck 12.7419 19.3048 -9.66612
head 5.47323 9.73344 -3.10484
rclavicle 1.03368e-014 -2.8625e-014
rhumerus -44.9885 -9.33391 -51.0471
rradius 39.9049
rwrist -3.3357
rhand -4.27869 -54.6273
rfingers 7.12502
rthumb 21.4863 -83.4556
lclavicle 1.03368e-014 -2.8625e-014
lhumerus -44.9671 3.3855 85.5699
lradius 40.6632
lwrist -8.90138
lhand 8.31015 -25.6033
lfingers 7.12502
lthumb 33.5219 1.28535
rfemur 11.0104 11.185 12.1396
rtibia 49.5662
rfoot 11.1822 -5.11919
rtoes -0.510416
lfemur -5.35346 -5.63003 -32.5163
ltibia 16.335
lfoot -10.6527 23.2386
ltoes 12.2
